<?xml version="1.0" encoding="UTF-8"?>
<svg width="324px" height="450px" viewBox="0 0 324 450" version="1.1" xmlns="http://www.w3.org/2000/svg" xmlns:xlink="http://www.w3.org/1999/xlink">
    <!-- Generator: Sketch 50 (54983) - http://www.bohemiancoding.com/sketch -->
    <title>Artboard Copy 7</title>
    <desc>Created with Sketch.</desc>
    <defs></defs>
    <g id="Artboard-Copy-7" stroke="none" stroke-width="1" fill="none" fill-rule="evenodd" stroke-linecap="square">
        <g id="Group-3" transform="translate(0.000000, -45.000000)" stroke="#3D3D3D" stroke-width="25">
            <g id="Group" transform="translate(91.000000, 75.000000)">
                <g id="Line">
                    <path d="M19.4982204,52.5017796 L52.8053886,19.1946114"></path>
                </g>
                <g id="Line" transform="translate(0.000000, 149.000000)">
                    <path d="M19.4982204,52.5017796 L52.8053886,19.1946114"></path>
                </g>
                <g id="Line" transform="translate(0.000000, 299.000000)">
                    <path d="M19.4982204,52.5017796 L52.8053886,19.1946114"></path>
                </g>
            </g>
            <g id="Group-2">
                <g id="Line" transform="translate(35.500000, 184.500000) rotate(-270.000000) translate(-35.500000, -184.500000) translate(0.000000, 149.000000)">
                    <path d="M19.4982204,52.5017796 L52.8053886,19.1946114"></path>
                </g>
                <g id="Line" transform="translate(35.500000, 335.500000) rotate(-270.000000) translate(-35.500000, -335.500000) translate(0.000000, 300.000000)">
                    <path d="M19.4982204,52.5017796 L52.8053886,19.1946114"></path>
                </g>
                <g id="Line" transform="translate(35.500000, 485.500000) rotate(-270.000000) translate(-35.500000, -485.500000) translate(0.000000, 450.000000)">
                    <path d="M19.4982204,52.5017796 L52.8053886,19.1946114"></path>
                </g>
                <g id="Line" transform="translate(35.500000, 35.500000) rotate(-270.000000) translate(-35.500000, -35.500000) ">
                    <path d="M19.4982204,52.5017796 L52.8053886,19.1946114"></path>
                </g>
            </g>
        </g>
        <g id="Group-3-Copy" transform="translate(162.000000, -45.000000)" stroke="#3D3D3D" stroke-width="25">
            <g id="Group" transform="translate(91.000000, 75.000000)">
                <g id="Line">
                    <path d="M19.4982204,52.5017796 L52.8053886,19.1946114"></path>
                </g>
                <g id="Line" transform="translate(0.000000, 149.000000)">
                    <path d="M19.4982204,52.5017796 L52.8053886,19.1946114"></path>
                </g>
                <g id="Line" transform="translate(0.000000, 299.000000)">
                    <path d="M19.4982204,52.5017796 L52.8053886,19.1946114"></path>
                </g>
            </g>
            <g id="Group-2">
                <g id="Line" transform="translate(35.500000, 184.500000) rotate(-270.000000) translate(-35.500000, -184.500000) translate(0.000000, 149.000000)">
                    <path d="M19.4982204,52.5017796 L52.8053886,19.1946114"></path>
                </g>
                <g id="Line" transform="translate(35.500000, 335.500000) rotate(-270.000000) translate(-35.500000, -335.500000) translate(0.000000, 300.000000)">
                    <path d="M19.4982204,52.5017796 L52.8053886,19.1946114"></path>
                </g>
                <g id="Line" transform="translate(35.500000, 485.500000) rotate(-270.000000) translate(-35.500000, -485.500000) translate(0.000000, 450.000000)">
                    <path d="M19.4982204,52.5017796 L52.8053886,19.1946114"></path>
                </g>
                <g id="Line" transform="translate(35.500000, 35.500000) rotate(-270.000000) translate(-35.500000, -35.500000) ">
                    <path d="M19.4982204,52.5017796 L52.8053886,19.1946114"></path>
                </g>
            </g>
        </g>
    </g>
</svg>