<svg version="1.1" baseProfile="tiny" id="Layer_1" xmlns="http://www.w3.org/2000/svg" xmlns:xlink="http://www.w3.org/1999/xlink"
	 x="0px" y="0px" width="800px" height="600px" viewBox="0 0 800 600" xml:space="preserve">
<g>
	<path fill="#9B8E8E" d="M418.223,280.272h-37.356c-4.506,5.061-7.283,11.942-7.283,19.531c0,7.588,2.776,14.47,7.283,19.531h37.356
		c4.506-5.062,7.283-11.943,7.283-19.531C425.506,292.214,422.729,285.333,418.223,280.272z"/>
	<path fill="#F4EFEF" d="M393.526,293.694c2.437-4.164-3.393-8.996-7.032-5.83c-6.665,7.109-5.627,18.782,0.695,25.77
		c1.571,2.037,3.379,3.897,5.267,5.699h13.67c-2.339-2.248-4.753-4.402-6.907-6.578
		C394.183,308.102,387.893,300.405,393.526,293.694z"/>
	<path fill="#F4EFEF" d="M406.123,280.272h-13.685c5.738,5.493,12.244,10.41,15.104,17.972c1.984,4.75-4.771,8.434-2.064,12.971
		c2.085,3.662,7.739,2.389,8.838-1.449c1.705-2.958,2.809-6.322,2.796-9.759C417.081,291.753,411.813,285.735,406.123,280.272z"/>
</g>
</svg>
